<svg width="16" height="20" viewBox="0 0 16 20" fill="none" xmlns="http://www.w3.org/2000/svg">
<path fill-rule="evenodd" clip-rule="evenodd" d="M7.98493 13.3462C4.11731 13.3462 0.814453 13.931 0.814453 16.2729C0.814453 18.6148 4.09636 19.2205 7.98493 19.2205C11.8525 19.2205 15.1545 18.6348 15.1545 16.2938C15.1545 13.9529 11.8735 13.3462 7.98493 13.3462Z" stroke="url(#paint0_linear_1335_269)" stroke-width="1.5" stroke-linecap="round" stroke-linejoin="round"/>
<path fill-rule="evenodd" clip-rule="evenodd" d="M7.98489 10.0059C10.523 10.0059 12.5801 7.94779 12.5801 5.40969C12.5801 2.8716 10.523 0.814453 7.98489 0.814453C5.44679 0.814453 3.3887 2.8716 3.3887 5.40969C3.38013 7.93922 5.42394 9.99731 7.95251 10.0059H7.98489Z" stroke="url(#paint1_linear_1335_269)" stroke-width="1.42857" stroke-linecap="round" stroke-linejoin="round"/>
<defs>
<linearGradient id="paint0_linear_1335_269" x1="2.43785" y1="14.4545" x2="6.31856" y2="22.0107" gradientUnits="userSpaceOnUse">
<stop stop-color="#0F123F"/>
<stop offset="1" stop-color="#3A408F"/>
</linearGradient>
<linearGradient id="paint1_linear_1335_269" x1="4.42921" y1="2.54868" x2="11.713" y2="8.35838" gradientUnits="userSpaceOnUse">
<stop stop-color="#0F123F"/>
<stop offset="1" stop-color="#3A408F"/>
</linearGradient>
</defs>
</svg>
